# xmcd CD database file
#
# Track frame offsets:
#	150
#	32292
#	70050
#	113745
#	143690
#	171787
#	207380
#	243750
#
# Disc length: 3816 seconds
#
# Revision: 0
# Processed by: cddbd v1.4PL0 Copyright (c) Steve Scherf et al.
# Submitted via: CDex 1.50
#
DISCID=610ee608
DTITLE=Rob McConnell - The Rob McConnell Jive 5
DYEAR=1990
DGENRE=Jazz
TTITLE0=Back Beat
TTITLE1=Bossa Nova Ova
TTITLE2=Dirty Man
TTITLE3=Them There Eyes
TTITLE4=Change Partners
TTITLE5=Red Devil
TTITLE6=Dream
TTITLE7=4 B.C.
EXTD=YEAR: 1990
EXTT0=
EXTT1=
EXTT2=
EXTT3=
EXTT4=
EXTT5=
EXTT6=
EXTT7=
PLAYORDER=
